<?xml version="1.0" standalone="no"?>
<!DOCTYPE svg PUBLIC "-//W3C//DTD SVG 20010904//EN"
 "http://www.w3.org/TR/2001/REC-SVG-20010904/DTD/svg10.dtd">
<svg version="1.0" xmlns="http://www.w3.org/2000/svg"
 width="780.000000pt" height="780.000000pt" viewBox="0 0 780.000000 780.000000"
 preserveAspectRatio="xMidYMid meet">
<metadata>
Created by potrace 1.11, written by Peter Selinger 2001-2013
</metadata>
<g transform="translate(0.000000,780.000000) scale(0.100000,-0.100000)"
fill="#000000" stroke="none">
<path d="M5469 7396 c-2 -2 -24 -6 -49 -9 -124 -15 -259 -56 -390 -120 -58
-28 -107 -53 -110 -56 -3 -3 -31 -26 -63 -49 -32 -24 -73 -58 -92 -76 -45 -44
-130 -157 -151 -201 -16 -34 -18 -35 -60 -30 -52 6 -110 14 -144 20 -14 2 -52
7 -85 10 -33 4 -67 8 -75 10 -8 2 -44 7 -80 10 -36 3 -83 8 -105 10 -22 2 -78
7 -125 10 -47 4 -98 8 -115 10 -173 23 -873 23 -1120 0 -115 -11 -160 -15
-184 -19 -14 -3 -48 -7 -76 -10 -27 -4 -61 -9 -75 -11 -14 -3 -42 -7 -62 -9
-20 -2 -45 -7 -55 -10 -10 -3 -32 -8 -48 -10 -40 -5 -160 -32 -259 -57 -371
-94 -714 -252 -848 -390 -86 -88 -89 -141 -18 -285 28 -56 60 -111 70 -122 11
-12 20 -24 20 -28 0 -4 23 -33 50 -65 28 -32 50 -60 50 -63 0 -3 10 -16 22
-28 13 -13 37 -40 53 -59 17 -20 68 -78 115 -129 47 -51 98 -107 113 -124 25
-27 76 -81 324 -342 32 -34 114 -121 183 -194 69 -73 143 -151 165 -174 36
-37 133 -143 310 -336 33 -36 87 -97 120 -135 33 -39 62 -72 65 -75 11 -11
157 -188 195 -235 22 -27 42 -52 45 -55 3 -3 32 -39 65 -80 71 -89 77 -97 90
-113 28 -34 122 -144 132 -155 9 -10 11 -173 7 -705 -2 -380 -6 -728 -8 -772
-2 -44 -7 -152 -11 -240 -3 -88 -9 -163 -13 -167 -4 -3 -79 -9 -167 -12 -88
-3 -182 -8 -210 -11 -67 -6 -154 -16 -185 -20 -14 -2 -45 -6 -70 -9 -25 -3
-56 -8 -70 -11 -14 -3 -41 -8 -60 -11 -68 -12 -196 -46 -265 -70 -199 -71
-331 -169 -393 -294 -23 -46 -27 -68 -27 -135 0 -71 4 -88 37 -155 41 -84 106
-156 195 -216 32 -22 60 -41 63 -44 29 -31 427 -207 510 -225 8 -2 47 -13 86
-24 91 -26 247 -61 299 -67 22 -3 49 -7 61 -9 129 -27 528 -27 746 0 18 2 54
6 80 9 133 16 364 55 457 77 384 92 662 260 757 456 42 86 47 157 19 248 -40
129 -161 253 -330 338 -54 27 -217 84 -265 92 -17 3 -58 12 -92 19 -35 8 -81
17 -103 20 -22 4 -65 10 -95 15 -30 6 -79 12 -108 15 -28 4 -67 8 -85 10 -42
6 -136 15 -228 22 -40 3 -76 7 -78 10 -3 2 -6 26 -7 52 -1 26 -5 85 -8 132 -4
47 -9 121 -11 165 -3 44 -8 121 -12 170 -4 50 -7 355 -8 679 l-1 590 81 81
c44 45 107 113 140 151 32 38 66 76 75 85 8 9 24 27 34 40 17 21 44 53 142
169 12 14 74 88 138 165 64 77 129 154 144 171 15 16 47 54 72 84 25 30 77 90
115 135 39 45 93 107 120 140 28 32 55 63 60 69 11 12 131 153 272 318 51 60
99 118 107 129 15 22 15 22 78 4 110 -31 227 -43 373 -40 164 4 275 23 403 71
378 142 645 444 716 811 15 77 16 308 2 378 -53 252 -134 413 -285 567 -153
154 -339 248 -611 308 -49 11 -372 24 -381 16z m194 -158 c7 -4 -1 -8 -18 -9
-16 0 -37 -2 -45 -3 -8 -2 -44 -7 -80 -11 -36 -4 -74 -9 -85 -10 -11 -2 -43
-6 -71 -9 -94 -12 -77 -6 -257 -91 -43 -20 -81 -35 -83 -32 -9 9 91 89 142
113 129 61 147 64 322 62 90 -2 169 -6 175 -10z m230 -199 c171 -48 297 -140
371 -271 l35 -62 -62 -32 c-34 -17 -116 -59 -182 -93 l-120 -61 -25 28 c-34
39 -105 79 -170 95 l-55 15 1 38 c1 22 5 84 9 139 8 96 12 164 14 214 1 22 3
23 57 16 30 -3 87 -15 127 -26z m-535 -21 c1 -17 81 -234 116 -316 21 -50 24
-67 15 -78 -6 -8 -17 -14 -24 -14 -19 0 -124 -93 -144 -127 -9 -16 -15 -15
-88 11 -43 15 -82 29 -88 30 -5 2 -17 6 -25 9 -8 3 -58 20 -111 37 -132 44
-128 40 -99 97 71 145 175 247 330 322 89 43 116 49 118 29z m227 2 c7 -11
-16 -183 -23 -175 -3 2 -18 41 -33 85 l-27 81 21 9 c30 12 55 12 62 0z m-1792
-375 c73 -3 146 -7 163 -9 43 -5 144 -17 174 -21 23 -3 68 -9 155 -21 17 -2
76 -11 131 -20 l102 -17 -1 -66 c-2 -95 11 -205 32 -289 16 -65 16 -72 2 -68
-46 14 -296 76 -323 81 -18 3 -58 10 -88 15 -30 5 -77 12 -105 15 -27 3 -64 8
-81 10 -30 5 -90 10 -274 20 -113 7 -466 7 -600 1 -150 -7 -260 -16 -395 -32
-27 -3 -66 -7 -85 -9 -58 -6 -177 -22 -220 -31 -58 -11 -69 -13 -106 -19 -85
-13 -294 -69 -383 -102 -108 -40 -116 -39 -248 24 -245 116 -186 272 147 386
41 14 91 29 110 33 19 4 37 8 40 9 32 9 59 16 80 19 14 3 48 9 77 15 76 15
163 26 363 47 25 2 81 7 125 10 44 3 105 7 135 9 30 2 145 7 255 11 110 3 201
7 202 8 5 4 497 -3 616 -9z m2511 -88 c7 -7 18 -22 25 -35 11 -21 10 -22 -26
-23 -21 0 -45 -2 -53 -3 -8 -2 -44 -6 -80 -10 -36 -4 -81 -9 -100 -12 -46 -6
-23 10 45 32 48 15 80 28 135 52 33 14 39 14 54 -1z m-4749 -35 c-6 -5 -50
-37 -100 -72 -49 -35 -96 -70 -103 -77 -7 -7 -21 -18 -30 -25 -10 -7 -28 -26
-40 -42 -27 -35 -24 -80 9 -133 29 -47 14 -41 -42 17 -99 103 -71 176 101 261
90 45 231 94 205 71z m3470 -63 c70 -23 123 -44 117 -48 -5 -3 -75 -4 -153 -1
-122 4 -143 7 -140 20 2 8 6 27 9 43 3 17 11 27 21 27 10 0 75 -18 146 -41z
m1580 -214 c-13 -177 -34 -223 -170 -370 -49 -53 -44 -41 30 70 68 102 87 145
91 199 3 62 15 212 19 246 1 14 4 39 5 55 1 19 7 3 16 -45 9 -48 13 -104 9
-155z m-890 185 c35 -21 75 -90 75 -128 0 -11 -5 -32 -11 -46 -9 -19 -16 -23
-29 -16 -34 18 -124 14 -200 -10 -93 -29 -102 -30 -107 -5 -10 50 -5 122 11
152 39 76 178 104 261 53z m723 -94 c8 -62 6 -165 -6 -226 -21 -115 -97 -264
-179 -356 l-29 -32 -70 67 c-39 36 -90 83 -115 105 -73 63 -139 126 -139 133
0 3 11 21 24 38 33 43 65 141 67 205 2 35 7 53 18 59 9 4 77 8 151 10 74 1
135 3 136 4 1 1 33 3 72 3 44 1 69 -3 70 -10z m-1188 -100 c0 -19 3 -47 6 -63
5 -27 3 -31 -23 -38 -34 -8 -35 -9 -153 -39 -52 -14 -123 -32 -156 -39 l-62
-15 -6 42 c-4 22 -9 59 -12 81 -3 22 -7 50 -9 62 -2 13 3 26 10 30 8 5 102 9
209 10 l196 2 0 -33z m-1485 -209 c17 -3 59 -8 95 -12 89 -10 261 -39 310 -52
14 -4 30 -8 35 -9 43 -7 75 -18 70 -23 -4 -3 -10 -6 -13 -7 -6 0 -60 -7 -147
-19 -11 -2 -45 -6 -75 -9 -30 -4 -77 -9 -105 -12 -266 -31 -754 -35 -1100 -9
-100 7 -203 16 -240 20 -22 3 -78 9 -125 15 -46 5 -91 10 -100 10 -13 0 -13 2
0 9 12 8 83 22 130 26 8 1 29 4 45 8 17 3 50 9 75 12 25 3 56 7 70 9 35 6 128
17 265 31 22 2 90 7 150 11 61 3 111 8 113 9 5 4 513 -4 547 -8z m2051 -301
c30 -115 53 -210 51 -212 -23 -24 -327 -38 -412 -20 -11 3 -29 5 -40 5 -11 1
-26 5 -34 10 -12 8 -12 11 0 23 8 8 28 32 44 52 17 21 39 49 50 62 11 13 65
82 120 153 92 120 137 160 158 141 4 -3 32 -100 63 -214z m117 62 c33 -41 37
-53 37 -104 0 -35 -4 -54 -9 -48 -9 9 -81 197 -81 211 0 8 2 6 53 -59z m-738
-6 c-16 -16 -60 -62 -96 -103 -37 -41 -82 -90 -100 -110 -35 -37 -104 -113
-150 -166 -15 -17 -51 -57 -79 -89 -97 -109 -125 -140 -175 -199 -27 -32 -55
-63 -60 -69 -6 -6 -33 -38 -60 -71 -62 -74 -93 -109 -185 -215 -30 -35 -63
-72 -73 -83 -145 -167 -449 -479 -522 -537 l-45 -35 -167 3 c-141 3 -171 6
-187 20 -22 20 -133 145 -191 216 -22 27 -47 56 -56 65 -8 9 -43 50 -76 91
-34 41 -69 84 -79 95 -11 11 -39 45 -64 75 -25 30 -52 62 -60 70 -21 23 -172
189 -192 213 -10 10 -59 64 -110 120 -116 124 -124 133 -228 247 -47 51 -99
109 -117 127 -17 19 -63 69 -101 111 -39 42 -82 90 -97 106 -14 15 -25 30 -23
32 2 1 71 -8 153 -22 83 -13 165 -26 184 -29 32 -4 87 -12 141 -20 14 -2 54
-6 90 -10 36 -4 76 -8 90 -10 38 -6 118 -14 190 -20 36 -3 85 -7 110 -10 41
-4 114 -9 320 -21 189 -11 596 -5 755 11 17 1 62 6 100 9 39 4 88 9 110 11 39
4 87 11 150 22 17 2 46 6 65 8 82 8 343 61 505 102 77 19 145 36 150 37 33 8
106 29 140 41 63 22 74 18 40 -13z m214 -4 c-13 -18 -28 -38 -34 -44 -5 -7
-21 -26 -35 -44 -14 -18 -30 -37 -35 -44 -6 -6 -32 -39 -59 -74 -26 -35 -58
-73 -70 -86 -11 -12 -45 -52 -75 -89 -30 -36 -61 -69 -69 -72 -13 -5 -13 -3 1
13 9 10 17 21 17 25 0 13 171 258 205 293 5 6 21 26 35 44 27 36 116 110 132
110 5 0 -1 -15 -13 -32z m-2544 -23 c17 -2 64 -9 105 -15 88 -14 228 -21 559
-29 19 -1 31 -4 27 -8 -4 -5 -11 -8 -14 -9 -4 0 -32 -4 -62 -8 -30 -5 -66 -10
-80 -11 -14 -2 -61 -6 -105 -11 -104 -10 -206 -11 -275 -1 -83 12 -122 17
-160 22 -88 12 -220 58 -220 77 0 10 139 5 225 -7z m-787 -502 c208 -209 337
-362 319 -379 -21 -21 -289 242 -376 369 -8 12 -21 28 -28 35 -12 13 -60 81
-77 110 -4 6 -2 12 4 12 6 0 77 -66 158 -147z m1322 -1291 c57 -8 154 -8 253
1 55 6 75 -4 40 -18 -215 -87 -332 -89 -424 -6 l-44 40 60 -4 c33 -3 85 -8
115 -13z m65 -1252 c-3 -278 -7 -545 -9 -595 -3 -49 -6 -131 -7 -182 -2 -50
-6 -90 -10 -88 -11 7 -32 231 -44 465 -5 84 -5 493 0 545 12 148 42 361 52
379 20 31 23 -70 18 -524z m-231 -1228 c-1 -20 -5 -91 -9 -157 -3 -66 -7 -127
-7 -135 -3 -40 6 -49 83 -84 134 -62 260 -56 394 18 58 32 60 34 59 72 -4 108
-15 261 -20 277 -6 18 0 18 93 12 143 -10 250 -22 333 -40 14 -3 39 -8 55 -10
38 -7 174 -44 200 -54 198 -80 287 -162 287 -266 0 -128 -140 -235 -403 -310
-31 -8 -66 -18 -78 -20 -21 -5 -32 -8 -81 -19 -35 -8 -76 -15 -140 -22 -30 -3
-57 -8 -60 -9 -32 -19 -594 -27 -755 -12 -154 15 -254 30 -403 61 -244 51
-450 171 -504 294 -84 189 93 320 547 406 12 2 48 7 80 11 33 4 68 9 79 11 10
2 64 6 120 10 55 3 103 8 104 9 2 2 10 1 16 -1 8 -3 12 -20 10 -42z m1620
-185 c56 -75 88 -138 82 -161 -6 -26 -97 -131 -127 -146 -17 -9 -17 -7 2 35
24 55 29 74 36 141 l5 52 -102 102 -103 102 92 -47 c55 -28 101 -59 115 -78z
m-2696 46 c-63 -65 -98 -120 -98 -154 0 -16 16 -61 35 -101 19 -40 32 -74 30
-76 -2 -2 -17 5 -33 17 -30 21 -82 130 -82 172 0 51 62 124 143 166 23 12 44
23 47 23 2 0 -17 -21 -42 -47z m673 -694 c24 -1 73 -8 109 -15 36 -7 85 -15
110 -18 25 -3 72 -8 105 -12 76 -9 104 -12 134 -13 81 -3 -86 -25 -194 -25
-38 0 -86 3 -106 7 -53 10 -208 67 -216 79 -3 6 -2 8 4 5 5 -3 29 -7 54 -8z"/>
<path d="M5897 6809 c-38 -72 -66 -133 -63 -136 10 -10 114 108 158 178 16 24
15 28 -3 58 -10 17 -20 31 -21 31 -2 0 -34 -59 -71 -131z"/>
<path d="M5190 6847 c-19 -15 -60 -67 -60 -76 0 -4 24 -25 53 -46 28 -22 57
-44 63 -50 7 -5 20 -17 31 -25 10 -8 27 -21 36 -29 15 -12 14 -5 -7 51 -33 90
-79 182 -91 185 -5 1 -17 -3 -25 -10z"/>
<path d="M3210 6587 c-3 -3 -21 -8 -40 -11 -45 -7 -77 -14 -98 -20 -9 -3 -35
-7 -56 -11 -57 -8 -57 -15 0 -16 175 -4 464 -17 534 -24 71 -8 310 -19 645
-30 88 -4 167 -8 177 -11 9 -3 19 -1 22 4 3 5 0 9 -7 10 -7 0 -23 3 -37 6 -14
4 -38 9 -55 12 -16 3 -50 10 -75 16 -25 6 -54 12 -65 13 -11 2 -45 9 -75 15
-58 12 -90 16 -235 25 -236 16 -628 29 -635 22z"/>
<path d="M2290 6502 c-22 -3 -181 -35 -234 -47 -10 -2 -42 -11 -70 -19 -28 -8
-54 -16 -58 -16 -4 -1 -38 -16 -75 -35 -77 -38 -136 -79 -139 -97 -1 -7 -7
-32 -12 -55 -9 -38 -8 -42 7 -34 9 5 25 18 36 28 34 32 159 111 209 132 43 19
204 55 356 80 36 6 74 13 85 15 11 2 40 7 65 11 25 4 52 9 61 10 9 2 38 6 65
10 136 18 120 23 -71 22 -110 -1 -211 -3 -225 -5z"/>
<path d="M6022 6199 c-18 -12 -31 -23 -29 -25 6 -6 193 -32 272 -39 67 -5 69
-5 42 10 -18 11 -252 80 -252 75 0 0 -15 -10 -33 -21z"/>
<path d="M5674 5773 c-15 -32 -40 -79 -55 -105 -28 -47 -28 -68 -1 -46 8 7 24
17 36 23 15 8 24 26 33 70 17 82 22 115 18 115 -1 0 -15 -26 -31 -57z"/>
<path d="M2310 5449 c19 -17 62 -57 96 -88 33 -31 116 -108 184 -171 68 -63
175 -164 238 -225 62 -60 119 -113 125 -116 7 -4 66 36 132 87 119 94 174 126
270 159 193 68 412 45 521 -52 68 -61 107 -195 83 -285 -5 -20 -4 -28 5 -28
13 0 192 181 421 426 135 144 158 168 233 248 46 48 51 60 22 58 -43 -4 -130
-14 -146 -17 -11 -3 -51 -7 -88 -11 -37 -3 -77 -7 -88 -9 -11 -3 -46 -7 -77
-11 -31 -3 -69 -8 -86 -10 -16 -2 -59 -6 -95 -9 -36 -4 -72 -8 -80 -10 -8 -2
-53 -7 -100 -10 -47 -4 -101 -8 -120 -11 -216 -22 -550 -22 -745 1 -137 16
-223 27 -245 31 -14 2 -45 6 -70 10 -54 7 -269 43 -290 49 -8 2 -31 6 -50 9
-19 3 -46 8 -60 11 -22 4 -21 2 10 -26z"/>
<path d="M3515 5018 c-102 -14 -256 -97 -343 -186 -63 -66 -93 -123 -99 -190
-5 -49 -1 -66 20 -107 14 -28 34 -57 44 -66 10 -9 40 -40 68 -69 136 -143 273
-126 467 58 106 102 129 135 151 218 23 93 12 170 -34 233 -60 84 -162 124
-274 109z m93 -148 c23 -10 42 -20 43 -22 7 -44 9 -88 4 -88 -3 0 -27 14 -52
31 -50 35 -61 37 -113 25 -44 -11 -87 -39 -177 -115 -75 -63 -77 -62 -31 29
39 78 43 82 138 123 97 42 127 45 188 17z"/>
<path d="M2768 1364 c-2 -1 -21 -5 -43 -8 -22 -4 -47 -8 -55 -11 -8 -2 -26 -6
-40 -9 -104 -18 -116 -22 -189 -67 -44 -28 -36 -124 15 -185 13 -16 22 -22 19
-14 -11 34 -12 127 0 143 13 18 93 56 225 107 89 35 111 47 85 47 -8 0 -16 -1
-17 -3z"/>
<path d="M2957 1323 c-1 -1 -22 -4 -47 -7 -52 -7 -60 -8 -120 -25 -180 -48
-251 -121 -206 -209 55 -106 293 -200 608 -239 83 -10 422 -10 517 0 145 16
330 60 476 114 215 79 261 139 173 224 -48 47 -110 80 -188 103 -91 26 -296
51 -304 38 -2 -4 2 -34 9 -67 20 -84 9 -148 -28 -176 -64 -46 -217 -73 -427
-73 -147 -1 -173 2 -237 23 -130 42 -187 122 -157 221 8 27 19 52 24 55 25 15
6 26 -41 23 -28 -2 -51 -4 -52 -5z"/>
</g>
</svg>
